<svg id="Layer_1" data-name="Layer 1" xmlns="http://www.w3.org/2000/svg" viewBox="0 0 226.76 121.55"><title>Untitled-1</title><path d="M129.35,5.73V15.4h8.24v5h-8.24V36.23h-4.89V0.69h13.82v5h-8.93Z"/><path d="M157.81,25c0,5.13,0,11.85-8.34,11.85s-8.24-6.52-8.24-11.75V11.75c0-5.23,0-11.75,8.24-11.75s8.34,6.71,8.34,11.85V25Zm-5.18-13.77c0-3.75,0-6.61-3.06-6.61s-3.16,2.91-3.16,6.71V25.52c0,3.7,0,6.61,3.16,6.61s3.06-2.86,3.06-6.61V11.25Z"/><path d="M172.51,36.23L171.62,29c-0.79-6.71-1.09-7.45-3.6-7.45h-1.83V36.23h-4.89V0.69h6.32c4.29,0,9.38.44,9.38,7.7v3c0,4.89-1.38,6.52-4.25,7.16,2.32,0.64,2.81,2.27,3.41,7.21l1.33,10.51h-5ZM172,9c0-2.91-.74-3.65-4.25-3.65h-1.58v11.5h0.94c4.29,0,4.89-1.33,4.89-5.53V9Z"/><path d="M135,63.71V78.57H130.1V63.71L123,43h5.38l4.29,14.22L137,43h5Z"/><path d="M159.62,67.37c0,5.13,0,11.85-8.34,11.85S143,72.7,143,67.47V54.09c0-5.23,0-11.75,8.24-11.75s8.34,6.71,8.34,11.85V67.37ZM154.43,53.6c0-3.75,0-6.61-3.06-6.61s-3.16,2.91-3.16,6.71V67.86c0,3.7,0,6.61,3.16,6.61s3.06-2.86,3.06-6.61V53.6Z"/><path d="M179.56,67.27c0,5.13,0,11.85-8.34,11.85S163,72.6,163,67.37V43h5.18V67.76c0,3.7,0,6.61,3.16,6.61s3.06-2.86,3.06-6.61V43h5.18V67.27Z"/><path d="M194.31,78.57l-0.89-7.26c-0.79-6.71-1.09-7.45-3.6-7.45H188V78.57H183.1V43h6.32c4.29,0,9.38.44,9.38,7.7v3c0,4.89-1.38,6.52-4.25,7.16,2.32,0.64,2.81,2.27,3.41,7.21l1.33,10.51h-5Zm-0.49-27.2c0-2.91-.74-3.65-4.25-3.65H188v11.5h0.94c4.29,0,4.89-1.33,4.89-5.53V51.37Z"/><path d="M147.27,120.91h-5l-4.15-24.14L134,120.91h-4.94l-5.78-35.54h5.23l3.26,24,4.15-24h4.59l4.15,24,3.26-24h5Z"/><path d="M171.87,109.71c0,5.13,0,11.85-8.34,11.85s-8.24-6.52-8.24-11.75V96.43c0-5.23,0-11.75,8.24-11.75s8.34,6.71,8.34,11.85v13.18Zm-5.18-13.77c0-3.75,0-6.61-3.06-6.61s-3.16,2.91-3.16,6.71V110.2c0,3.7,0,6.61,3.16,6.61s3.06-2.86,3.06-6.61V95.94Z"/><path d="M186.58,120.91l-0.89-7.26c-0.79-6.71-1.09-7.45-3.6-7.45h-1.83v14.71h-4.89V85.37h6.32c4.29,0,9.38.44,9.38,7.7v3c0,4.89-1.38,6.52-4.25,7.16,2.32,0.64,2.81,2.27,3.41,7.21l1.33,10.51h-5Zm-0.49-27.2c0-2.91-.74-3.65-4.25-3.65h-1.58v11.5h0.94c4.29,0,4.89-1.33,4.89-5.53V93.71Z"/><path d="M194.4,120.91V85.37h4.89v30.46h8.44v5.08H194.4Z"/><path d="M226.76,110.2c0,9.28-2.22,10.71-10.86,10.71h-5.43V85.37h5.73c8.24,0,10.56,1.68,10.56,10.46V110.2Zm-5.18-14.36c0-5.08-.89-5.63-4.84-5.63h-1.38V116h1.23c4.69,0,5-.69,5-6.32V95.84Z"/><path d="M28,99.08a1.7,1.7,0,0,0-1.59,1.1l-3.24,8.19-0.29.93-0.26-1-2.5-8a0.15,0.15,0,0,0,0-.07v0h0a1.71,1.71,0,0,0-1.6-1.14h-4a1.72,1.72,0,0,0-1.63,1.71,4.27,4.27,0,0,0,.19.87l0.53,1.67-2,5-0.31.92L11,108.37l-2.49-8a0.19,0.19,0,0,1,0-.07v0a1.71,1.71,0,0,0-1.6-1.14h-4a1.72,1.72,0,0,0-1.63,1.71,3.09,3.09,0,0,0,.2.87l6.05,18A1.7,1.7,0,0,0,9.12,121a1.68,1.68,0,0,0,1.62-1.19L15,109.16l0.31-1,0.25,0.94,3.57,10.62A1.69,1.69,0,0,0,20.77,121a1.72,1.72,0,0,0,1.64-1.24l7.17-18.28a1.79,1.79,0,0,0,.17-0.73A1.72,1.72,0,0,0,28,99.08h0Z"/><path d="M58.19,99.08a1.72,1.72,0,0,0-1.6,1.1l-3.22,8.19-0.31.93-0.23-1-2.52-8a0.14,0.14,0,0,0,0-.07v0h0a1.72,1.72,0,0,0-1.62-1.14h-4A1.71,1.71,0,0,0,43,100.86a3.05,3.05,0,0,0,.19.87l0.53,1.67-2,5-0.32.92-0.24-.93-2.49-8s0-.06,0-0.07v0a1.68,1.68,0,0,0-1.59-1.14H33a1.71,1.71,0,0,0-1.63,1.71,4,4,0,0,0,.19.87l6.07,18A1.68,1.68,0,0,0,39.28,121a1.71,1.71,0,0,0,1.62-1.19l4.23-10.69,0.3-1,0.27,0.94,3.55,10.62a1.71,1.71,0,0,0,3.3,0l7.17-18.28a1.71,1.71,0,0,0-1.54-2.46h0Z"/><path d="M77.78,99.11H63.64a1.47,1.47,0,0,0-1.47,1.48h0v18.77h0a1.6,1.6,0,0,0,1.58,1.54h4a1.6,1.6,0,0,0,1.57-1.59v-8.77h5.76a1.55,1.55,0,0,0,0-3.1H69.33v-5h8.53a1.66,1.66,0,0,0-.08-3.31h0Z"/><path d="M55.85,39.27c2.57,2.88,2.85,11.45,9.31,8,3.89-2,3.83-10.7-1.35-13.82-4.2-2.48-6.49.86-8,5a0.78,0.78,0,0,0,0,.81h0Z"/><path d="M45.81,37.9c-2.7,2.24-4.56,8.38-9.53,6.3-4-2-4.4-10,2.52-13.68,4.82-2.22,7.27,2.18,7.31,6.84a1,1,0,0,1-.3.54h0Z"/><path d="M52.48,53.57c2.67-.28,2.07-2.75,0-3.37A24.42,24.42,0,0,0,46,49.34c-3.43.08-3.35,2.7-1.56,3.14a5.57,5.57,0,0,1,3.39,2.13c1.06,2.07.59-.62,4.61-1h0Z"/><path d="M65.07,9.26c3.35-5.58,9.19-4.5,12.11-1.72,3.22,3,3.73,6.51,2.5,9-1.68,3.29-6,7.3-8.76,3.42a15.92,15.92,0,0,0-5.28-4.34c-2.2-.93-2.61-2.91-0.56-6.33h0Z"/><path d="M78.42,33.88c-0.3-1-.79-0.93-0.77-0.12,0.27,10.18-5.8,21.07-18.81,21.15-3.33,0-2.33,5.33-8.39,2.65-4.38-2.95-6.88,2.86-10-3.39a4.06,4.06,0,0,0-3-2.85C24.59,48.14,20.49,30.47,31.81,16.2c2.24,1.34,3.06,1.54,5.44-.65a16.76,16.76,0,0,1,4.48-2.84c2.72-1,4.2-2.2,1.84-7.39-3-6.74-9.2-4.83-12-2.51-3.19,2.64-5.43,6.87-1.32,11.87C18.72,22.45,16.75,32,17,40.26c0.27,8.81-2,8.06.83,17,0.25,0.79-.3.77-0.72,0.51-12-7.68-18.47-31.08.21-44,0.42-.38.25-0.87-1.29,0C-0.13,22.4-1.62,39,1.07,50.13c1.31,5.4-.68,6.4,1.41,13.5,4.81,14.8,8.92,16,14.71,16.4,10.55,0,3.4-5.82,3.78-13.13,0-.43.52-0.64,0.82,0.24C27.6,80.17,31.7,92,47,90.91c8.84-1.15,3.94-5.54,3.4-8-6.5-21.56,9.27-26.65,4.81-5.62-2.95,12,6.37,10.84,12.93,6.51C74.86,79.33,83.32,50,78.42,33.88h0M52.71,59.38c-1.46,3.87-9,2.54-9.28-1.2,0-.15.2-0.12,0.29-0.1a40.68,40.68,0,0,0,8.77,1.15c0.08,0,.26,0,0.23.14h0Z"/><path d="M18.84,85.52A2.83,2.83,0,1,1,16,82.7a2.83,2.83,0,0,1,2.83,2.82M16,82.14a3.39,3.39,0,1,0,3.37,3.38A3.39,3.39,0,0,0,16,82.14Z"/><path d="M17,86a0.84,0.84,0,0,1-.88.7A1.13,1.13,0,0,1,15,85.51a1.06,1.06,0,0,1,1.06-1.2A0.86,0.86,0,0,1,17,85h0.47a1.3,1.3,0,0,0-1.37-1.17,1.55,1.55,0,0,0-1.59,1.7,1.59,1.59,0,0,0,1.61,1.71A1.37,1.37,0,0,0,17.47,86H17Z"/><path d="M78.34,93.6a2.83,2.83,0,1,1-2.83-2.81,2.83,2.83,0,0,1,2.83,2.81m-2.83-3.38A3.38,3.38,0,1,0,78.9,93.6,3.37,3.37,0,0,0,75.51,90.21Z"/><path d="M74.93,93.83h0.55l0.85,1.38h0.53l-0.91-1.41a0.83,0.83,0,0,0,.83-0.87A0.89,0.89,0,0,0,75.66,92H74.43v3.19h0.5V93.83m0-.42v-1h0.66a0.56,0.56,0,0,1,.69.48c0,0.5-.36.52-0.79,0.52H74.93Z"/><rect x="99.96" y="0.67" width="1.7" height="120.38"/></svg>